HIERARCHY
ROOT Hips
{
	OFFSET 0.000000 0.000000 0.000000
	CHANNELS 6 Xposition Yposition Zposition Xrotation Yrotation Zrotation
	JOINT LeftUpLeg_virtual
	{
		OFFSET 0.000000 0.000000 0.000000
		CHANNELS 3 Xrotation Yrotation Zrotation
		JOINT LeftUpLeg
		{
			OFFSET 10.205400 -3.823500 0.155100
			CHANNELS 3 Xrotation Yrotation Zrotation
			JOINT LeftLeg
			{
				OFFSET 0.708757 -12.982077 0.567790
				CHANNELS 3 Xrotation Yrotation Zrotation
				JOINT LeftFoot
				{
					OFFSET -0.708756 -10.717838 -2.184338
					CHANNELS 3 Xrotation Yrotation Zrotation
					JOINT LeftToeBase
					{
						OFFSET 0.108149 -7.191104 7.560241
						CHANNELS 3 Xrotation Yrotation Zrotation
						JOINT LeftToe_End
						{
							OFFSET 0.070230 0.081724 4.490308
							CHANNELS 3 Xrotation Yrotation Zrotation
							End Site
							{
								OFFSET 0 0 0
							}
						}
					}
				}
			}
		}
	}
	JOINT RightUpLeg_virtual
	{
		OFFSET 0.000000 0.000000 0.000000
		CHANNELS 3 Xrotation Yrotation Zrotation
		JOINT RightUpLeg
		{
			OFFSET -10.205400 -3.823500 0.005500
			CHANNELS 3 Xrotation Yrotation Zrotation
			JOINT RightLeg
			{
				OFFSET -0.708756 -12.982134 0.610632
				CHANNELS 3 Xrotation Yrotation Zrotation
				JOINT RightFoot
				{
					OFFSET 0.708754 -10.717769 -1.945823
					CHANNELS 3 Xrotation Yrotation Zrotation
					JOINT RightToeBase
					{
						OFFSET -0.108140 -7.191069 7.372968
						CHANNELS 3 Xrotation Yrotation Zrotation
						JOINT RightToe_End
						{
							OFFSET -0.070227 0.081735 4.479403
							CHANNELS 3 Xrotation Yrotation Zrotation
							End Site
							{
								OFFSET 0 0 0
							}
						}
					}
				}
			}
		}
	}
	JOINT Spine_virtual
	{
		OFFSET 0.000000 0.000000 0.000000
		CHANNELS 3 Xrotation Yrotation Zrotation
		JOINT Spine
		{
			OFFSET 0.000000 6.876099 0.125700
			CHANNELS 3 Xrotation Yrotation Zrotation
			JOINT Spine1
			{
				OFFSET 0.000000 5.730043 0.104720
				CHANNELS 3 Xrotation Yrotation Zrotation
				JOINT Spine1_split
				{
					OFFSET 0.000000 5.730043 0.104720
					CHANNELS 3 Xrotation Yrotation Zrotation
					JOINT Spine2
					{
						OFFSET 0.000000 5.730043 0.104720
						CHANNELS 3 Xrotation Yrotation Zrotation
						JOINT Neck_virtual
						{
							OFFSET 0.000000 0.000000 0.000000
							CHANNELS 3 Xrotation Yrotation Zrotation
							JOINT Neck
							{
								OFFSET 0.000000 10.314075 0.188496
								CHANNELS 3 Xrotation Yrotation Zrotation
								JOINT Head
								{
									OFFSET 0.000000 7.643700 -2.377400
									CHANNELS 3 Xrotation Yrotation Zrotation
									JOINT HeadTop_End
									{
										OFFSET 0.000000 43.788605 -13.619600
										CHANNELS 3 Xrotation Yrotation Zrotation
										End Site
										{
											OFFSET 0 0 0
										}
									}
								}
							}
						}
						JOINT LeftShoulder_virtual
						{
							OFFSET 0.000000 0.000000 0.000000
							CHANNELS 3 Xrotation Yrotation Zrotation
							JOINT LeftShoulder
							{
								OFFSET 2.196100 4.412489 0.087492
								CHANNELS 3 Xrotation Yrotation Zrotation
								JOINT LeftShoulder_split
								{
									OFFSET 2.196100 4.412489 0.087492
									CHANNELS 3 Xrotation Yrotation Zrotation
									JOINT LeftArm
									{
										OFFSET 8.771219 -2.981674 -0.026999
										CHANNELS 3 Xrotation Yrotation Zrotation
										JOINT LeftForeArm
										{
											OFFSET 8.512804 0.000000 -0.000000
											CHANNELS 3 Xrotation Yrotation Zrotation
											JOINT LeftHand
											{
												OFFSET 18.484802 0.000000 -0.000000
												CHANNELS 3 Xrotation Yrotation Zrotation
												End Site
												{
													OFFSET 0 0 0
												}
											}
										}
									}
								}
							}
						}
						JOINT RightShoulder_virtual
						{
							OFFSET 0.000000 0.000000 0.000000
							CHANNELS 3 Xrotation Yrotation Zrotation
							JOINT RightShoulder
							{
								OFFSET -2.196100 4.412496 0.070690
								CHANNELS 3 Xrotation Yrotation Zrotation
								JOINT RightShoulder_split
								{
									OFFSET -2.196100 4.412496 0.070690
									CHANNELS 3 Xrotation Yrotation Zrotation
									JOINT RightArm
									{
										OFFSET -8.771282 -2.981682 -0.094208
										CHANNELS 3 Xrotation Yrotation Zrotation
										JOINT RightForeArm
										{
											OFFSET -8.494598 0.000000 0.000000
											CHANNELS 3 Xrotation Yrotation Zrotation
											JOINT RightHand
											{
												OFFSET -18.483803 0.000000 0.000001
												CHANNELS 3 Xrotation Yrotation Zrotation
												End Site
												{
													OFFSET 0 0 0
												}
											}
										}
									}
								}
							}
						}
					}
				}
			}
		}
	}
}
MOTION
Frames: 11
Frame Time: 0.03333333
0.646397 32.207676 2.978075 0.000000 0.000000 0.000000 -12.734953 -52.328026 -7.819814 -18.192725 0.460859 15.303023 28.705700 -11.015547 -1.331991 -2.060631 -2.291280 -5.573423 -1.875059 -2.939197 0.373335 0.000000 0.000000 0.000000 -7.592536 -49.315684 -5.603865 5.625008 -8.821092 -19.153859 35.630891 9.000273 -4.036188 -22.253846 -13.726777 30.426252 -5.399107 -0.840601 0.064641 0.000000 0.000000 0.000000 -13.159416 -45.539357 -8.286019 5.564492 5.572102 -1.506926 10.796784 10.070285 -3.354903 1.097707 -2.157204 0.603478 0.000000 0.000000 0.000000 10.950049 9.531091 -4.145402 -6.930774 -3.879343 2.099859 -4.649453 22.344534 0.585005 0.000000 0.000000 0.000000 10.163096 9.310761 -3.174817 2.474991 1.554026 -3.125440 -5.416649 2.911384 -6.002769 -15.981990 -3.242969 -56.298459 2.144688 -53.303350 1.160935 0.000000 0.000000 0.000000 10.020711 9.872180 -2.892507 2.845326 8.740834 9.475300 -3.202044 4.011174 -0.841914 -1.935766 -29.543222 65.792214 -8.220042 50.050270 9.072774 0.000000 0.000000 0.000000 
0.895789 32.264297 2.362989 0.000000 0.000000 0.000000 -11.620089 -52.218244 -6.707666 -17.706140 0.711481 15.410999 27.599012 -11.715806 -1.282173 -4.075334 -2.986049 -4.036149 -1.089602 -2.678604 -0.453042 0.000000 0.000000 0.000000 -7.732239 -49.198962 -5.116451 5.844508 -8.763596 -20.285279 34.712169 8.818513 -3.983696 -23.446723 -12.879856 27.225759 -2.189139 -1.341858 0.969779 0.000000 0.000000 0.000000 -12.410848 -45.662202 -7.806876 5.294625 5.439993 -1.316400 11.071955 10.082820 -3.341142 1.474473 -1.732076 0.382319 0.000000 0.000000 0.000000 11.134933 9.518299 -4.089749 -6.901110 -3.612329 2.122263 -4.427058 22.925313 0.473967 0.000000 0.000000 0.000000 10.707614 9.283115 -3.211948 2.510496 1.407199 -3.434613 -4.965757 2.893017 -5.821847 -14.202913 -2.068813 -57.340319 1.979992 -51.747774 1.207074 0.000000 0.000000 0.000000 10.598645 9.923258 -2.978804 2.815380 9.168388 10.189566 -3.871901 3.651383 -0.214189 -0.975688 -29.772132 65.798839 -7.978662 49.108794 8.975722 0.000000 0.000000 0.000000 
1.158026 32.219917 1.357401 0.000000 0.000000 0.000000 -10.207568 -51.316369 -5.522885 -17.917541 1.113442 16.478048 25.021083 -12.310348 -1.666902 -4.814955 -3.428314 -5.615794 -0.229438 -2.340719 -0.838237 0.000000 0.000000 0.000000 -7.407239 -48.065745 -4.482530 4.421155 -8.905872 -21.350985 35.912260 9.376018 -3.178861 -25.760511 -11.369559 21.938322 0.003390 -1.523545 1.356868 0.000000 0.000000 0.000000 -11.278103 -44.724294 -7.008285 5.401429 5.044647 -1.290310 11.667588 9.991530 -3.326384 2.044212 -0.951501 0.331201 0.000000 0.000000 0.000000 11.637298 9.394327 -4.031739 -7.993154 -3.186340 2.263092 -4.225280 22.920877 0.266182 0.000000 0.000000 0.000000 11.502772 9.149985 -3.268967 2.468536 1.457491 -3.222351 -4.641020 2.108674 -4.500377 -13.202750 -0.778522 -59.813128 3.036874 -50.477963 2.600672 0.000000 0.000000 0.000000 11.518034 9.817436 -3.176489 2.920585 9.570348 11.036295 -4.494566 3.144029 0.150474 -1.193223 -27.709164 64.565512 -7.459596 48.551601 8.295482 0.000000 0.000000 0.000000 
1.372459 32.070873 -0.033197 0.000000 0.000000 0.000000 -8.494371 -49.905983 -4.426516 -19.486161 1.364398 18.080496 22.079329 -12.416405 -2.247025 -3.128138 -3.530156 -9.425795 0.395366 -1.961485 -0.905152 0.000000 0.000000 0.000000 -6.343509 -46.084195 -3.667481 1.076355 -9.342170 -22.030647 39.358600 10.815678 -1.505964 -27.155014 -8.860435 16.045687 -0.979626 -1.690979 1.352915 0.000000 0.000000 0.000000 -9.461073 -42.976715 -5.870243 5.794380 4.399265 -1.393655 12.533771 9.744335 -3.305701 2.162064 -0.343877 0.704202 0.000000 0.000000 0.000000 12.497188 9.127336 -3.978249 -10.091382 -2.650313 2.545576 -4.213469 22.326065 0.066150 0.000000 0.000000 0.000000 12.562952 8.871697 -3.337586 2.385999 1.751305 -2.484323 -4.427475 1.006415 -2.630465 -14.085164 -0.061175 -62.845848 4.379814 -48.809611 4.504188 0.000000 0.000000 0.000000 12.710833 9.524557 -3.417745 3.135834 9.929309 11.635672 -4.989569 2.478262 0.134353 -2.971258 -23.812696 62.181216 -6.887571 49.067533 7.154785 0.000000 0.000000 0.000000 
1.536954 31.749397 -1.632172 0.000000 0.000000 0.000000 -6.215953 -48.028702 -3.318666 -22.982897 1.681651 19.849935 19.729584 -11.563403 -2.751631 0.798418 -3.663378 -13.134084 0.601622 -1.640705 -0.929486 0.000000 0.000000 0.000000 -4.656896 -43.812655 -2.842566 -4.433118 -10.321278 -21.942592 44.097959 13.392097 0.892368 -26.194489 -5.444620 11.307578 -5.922851 -1.973270 0.916695 0.000000 0.000000 0.000000 -6.957161 -40.553914 -4.561640 6.327358 3.601910 -1.557542 13.657775 9.287982 -3.277691 2.307857 0.225930 1.405880 0.000000 0.000000 0.000000 13.696292 8.667410 -3.944434 -13.112846 -2.145258 2.963499 -4.730858 20.968705 0.051408 0.000000 0.000000 0.000000 13.866820 8.397123 -3.437285 2.297892 2.132817 -1.380515 -4.177595 -0.135211 -0.964214 -16.553209 -0.293636 -65.457432 4.917472 -46.580743 5.917415 0.000000 0.000000 0.000000 14.122744 9.019553 -3.643606 3.424535 10.198663 11.672405 -5.473665 1.987913 0.058466 -5.736145 -18.707200 59.215076 -6.476801 51.316120 5.651646 0.000000 0.000000 0.000000 
1.636768 31.218090 -3.093061 0.000000 0.000000 0.000000 -3.226737 -45.583603 -2.170845 -28.872326 1.885263 21.150934 18.531333 -10.014640 -2.997501 6.162229 -4.451726 -15.404385 -0.290939 -1.420821 -0.800133 0.000000 0.000000 0.000000 -2.244409 -41.126492 -1.979575 -11.821482 -12.014186 -20.835951 49.090612 17.119478 3.689005 -23.643296 -1.354617 7.767640 -12.699771 -2.332079 0.180876 0.000000 0.000000 0.000000 -3.830810 -37.702644 -3.332958 6.980680 2.729572 -1.675663 15.080204 8.608040 -3.286569 2.307833 0.654996 1.657000 0.000000 0.000000 0.000000 15.250754 8.029930 -3.948854 -16.770604 -1.872398 3.465578 -5.909001 19.072260 0.313387 0.000000 0.000000 0.000000 15.444499 7.753153 -3.601908 2.217910 2.420508 -0.159550 -3.677855 -1.180039 0.135252 -19.792811 -1.543597 -66.777346 4.105666 -44.553693 6.307555 0.000000 0.000000 0.000000 15.745415 8.330551 -3.837878 3.754327 10.382968 11.023382 -5.862020 1.862388 -0.197800 -8.781574 -13.711973 56.280810 -6.170332 55.313884 3.725663 0.000000 0.000000 0.000000 
1.675565 30.483479 -4.457306 0.000000 0.000000 0.000000 0.564011 -42.304402 -0.910772 -37.326714 1.684856 22.012426 19.307678 -8.960092 -2.923394 11.902408 -6.581842 -16.838300 -1.887754 -1.283169 -0.561159 0.000000 0.000000 0.000000 1.129565 -37.895600 -0.961649 -20.460890 -14.715035 -18.601605 54.023330 21.334190 6.606513 -21.526215 3.062339 3.908905 -17.846178 -2.494908 -0.590864 0.000000 0.000000 0.000000 0.058536 -34.945321 -2.167289 7.724862 1.966484 -1.690824 16.801159 7.747994 -3.379867 2.155447 0.819530 1.752904 0.000000 0.000000 0.000000 17.073977 7.240938 -4.008539 -20.813106 -1.881318 3.905916 -7.803157 16.702555 0.915852 0.000000 0.000000 0.000000 17.254801 6.969207 -3.878462 2.191023 2.423065 0.881168 -2.716394 -2.308572 0.724090 -22.900378 -3.919954 -66.416896 2.025616 -43.956065 5.639454 0.000000 0.000000 0.000000 17.586147 7.531329 -4.019858 4.115584 10.666408 9.897012 -6.062132 2.462744 -0.568960 -11.617511 -9.975526 53.997659 -5.667041 60.588955 1.212939 0.000000 0.000000 0.000000 
1.637286 29.517870 -5.673321 0.000000 0.000000 0.000000 4.959612 -37.871374 0.333885 -47.848866 1.379138 22.081476 22.271211 -8.304147 -2.771859 15.213589 -9.604157 -16.498768 -3.316720 -1.271474 -0.328154 0.000000 0.000000 0.000000 5.087346 -34.013038 0.079471 -29.923069 -18.408362 -15.698922 59.086307 25.318014 9.465024 -21.133684 7.363953 -0.945407 -19.506850 -2.255924 -1.244057 0.000000 0.000000 0.000000 4.369479 -32.257894 -1.127964 8.542219 1.453853 -1.617406 18.809071 6.771870 -3.591798 1.817252 0.826633 1.538652 0.000000 0.000000 0.000000 19.091396 6.357851 -4.151859 -24.925020 -2.235964 4.133419 -10.323296 13.805053 1.738857 0.000000 0.000000 0.000000 19.209970 6.119970 -4.272364 2.203215 2.143064 1.620419 -1.805560 -3.233271 0.595138 -24.799736 -7.192706 -64.016740 -0.777793 -46.384464 4.040044 0.000000 0.000000 0.000000 19.623986 6.697056 -4.231094 4.470075 11.245135 8.430571 -5.963069 3.435179 -0.911536 -13.768072 -8.093086 52.466812 -4.477806 66.584133 -2.164397 0.000000 0.000000 0.000000 
1.573629 28.310125 -6.536922 0.000000 0.000000 0.000000 9.451947 -32.276715 1.299943 -59.737552 0.862046 21.484664 28.284293 -7.909603 -2.661026 15.120024 -13.043334 -14.717046 -4.233807 -1.359490 -0.061193 0.000000 0.000000 0.000000 9.362221 -29.404200 0.998300 -40.311667 -22.247369 -13.250152 65.567173 28.999549 11.339145 -22.352159 11.058442 -5.969631 -19.213679 -1.599056 -1.828608 0.000000 0.000000 0.000000 8.894590 -29.378682 -0.117375 9.405124 1.279714 -1.532976 20.916713 5.766654 -3.938177 1.239423 0.764338 1.275898 0.000000 0.000000 0.000000 21.166396 5.466316 -4.385571 -28.681720 -2.834694 4.102786 -13.269757 10.471004 2.617501 0.000000 0.000000 0.000000 21.179636 5.282144 -4.774601 2.256181 1.554561 2.136639 -1.166572 -4.034580 0.156788 -25.042812 -10.658873 -59.305720 -3.887476 -52.216199 1.519391 0.000000 0.000000 0.000000 21.723447 5.880227 -4.530233 4.839951 12.310866 6.803670 -5.231304 4.400780 -1.283031 -15.515707 -8.002823 51.161184 -1.809665 72.602056 -6.951471 0.000000 0.000000 0.000000 
1.486122 26.905956 -7.075672 0.000000 0.000000 0.000000 13.709570 -25.864477 1.873172 -72.481455 -0.085312 21.069774 38.956728 -7.788190 -2.556050 12.884495 -16.434557 -12.979867 -4.687558 -1.417733 -0.142000 0.000000 0.000000 0.000000 13.775268 -24.400130 1.714344 -51.769286 -25.181888 -12.246983 74.507050 31.991083 11.251805 -24.034217 13.494143 -10.091486 -19.771815 -0.611216 -2.393009 0.000000 0.000000 0.000000 13.344677 -26.012186 0.812248 10.127411 1.429119 -1.505632 22.911772 4.797966 -4.392933 0.702005 0.851374 1.149302 0.000000 0.000000 0.000000 23.068762 4.607040 -4.692328 -31.767370 -3.568236 3.819885 -16.498762 6.830785 3.383163 0.000000 0.000000 0.000000 22.952917 4.499725 -5.317821 2.358992 0.746829 2.498890 -0.762202 -4.897482 -0.197754 -24.076091 -13.514817 -52.740136 -7.493687 -60.401296 -2.189124 0.000000 0.000000 0.000000 23.626186 5.104001 -4.894236 5.248397 13.958851 5.284999 -4.304775 4.904152 -1.623934 -17.343505 -8.638256 49.341942 3.683366 77.806667 -14.313721 0.000000 0.000000 0.000000 
1.350368 25.385899 -7.290329 0.000000 0.000000 0.000000 17.698232 -19.457035 2.121097 -84.780638 -1.612696 21.314428 54.821168 -6.755181 -2.545834 9.921312 -18.788836 -10.946239 -5.822837 -1.451282 -0.549693 0.000000 0.000000 0.000000 18.161172 -19.019413 2.127764 -64.023311 -25.867489 -12.661543 85.825896 33.855772 8.894505 -25.909494 14.291123 -12.935659 -22.329386 0.349254 -2.733437 0.000000 0.000000 0.000000 17.601850 -22.146286 1.548367 10.535191 1.784787 -1.594312 24.524303 3.933806 -4.869194 0.369880 0.819563 0.973223 0.000000 0.000000 0.000000 24.588425 3.845235 -5.018610 -33.705389 -4.257092 3.411256 -19.681238 3.153345 3.864543 0.000000 0.000000 0.000000 24.332310 3.806286 -5.822834 2.414442 -0.119145 2.760235 -0.292884 -5.431625 -0.393691 -22.964317 -15.730923 -45.157581 -12.766903 -69.833056 -8.178562 0.000000 0.000000 0.000000 25.114194 4.402134 -5.280237 5.720184 16.277806 4.065609 -3.422922 4.515605 -1.594495 -19.942887 -8.765224 46.289333 13.370504 81.424782 -25.370384 0.000000 0.000000 0.000000 
